<svg version="1.1" id="Capa_1" xmlns="http://www.w3.org/2000/svg" xmlns:xlink="http://www.w3.org/1999/xlink" x="0px" y="0px"
	 viewBox="0 0 1080 531.19" style="enable-background:new 0 0 1080 531.19;" xml:space="preserve">
<style type="text/css">
	.st0{fill:#694F9A;}
	.st1{font-family:'BerlinSansFB-Reg';}
	.st2{font-size:184.1234px;}
</style>
<g>
	<text transform="matrix(1 0 0 1 297.7363 199.9315)" class="st0 st1 st2">Cute Cats</text>
	<g>
		<path class="st0" d="M313.98,419.56c0.3,3.26-1.56,4.89-5.56,4.89c-2.22,0-7.6-2.11-16.13-6.34c-8.53-4.23-13.98-7.23-16.35-9.01
			c-27.29,18.54-59.61,27.8-96.98,27.8c-43.59,0-79.48-16.31-107.65-48.93c-26.69-30.84-40.04-68.43-40.04-112.77
			c0-45.37,13.12-83.48,39.37-114.33c27.73-32.62,63.84-48.93,108.32-48.93c22.83,0,44.82,5.38,65.95,16.13
			c21.13,10.75,38,25.47,50.6,44.15c1.93,2.82,2.89,4.97,2.89,6.45c0,2.08-5.3,8.93-15.9,20.57c-10.6,11.64-16.72,17.46-18.35,17.46
			c-1.19,0-5.71-4.52-13.57-13.57c-9.49-10.97-18.54-19.35-27.14-25.13c-13.5-9.04-27.58-13.57-42.26-13.57
			c-28.03,0-51.01,11.72-68.95,35.14c-16.31,21.35-24.47,46.56-24.47,75.62c0,28.32,8.38,53.38,25.13,75.18
			c18.24,23.58,41.15,35.37,68.73,35.37c27.14,0,52.05-7.41,74.74-22.24c-0.3-4-1.56-18.09-3.78-42.26
			c-1.78-17.2-2.67-31.21-2.67-42.04c0-2.52,1.63-3.78,4.89-3.78c2.82,0,7.04,0.19,12.68,0.56c5.63,0.37,9.86,0.56,12.68,0.56
			c2.82,0,7.12-0.15,12.9-0.44c5.78-0.3,10.08-0.44,12.9-0.44c3.11,0,4.67,2.37,4.67,7.12c0,5.19-0.19,13.01-0.56,23.47
			c-0.37,10.45-0.56,18.28-0.56,23.47c0,21.35,1.41,50.27,4.23,86.75L313.98,419.56z"/>
		<path class="st0" d="M564.87,229.17c0,0.59-0.22,1.93-0.67,4c-5.78,33.96-8.67,63.25-8.67,87.86c0,1.48,1.85,34.77,5.56,99.87
			l0.22,3.11c0.15,4.3-1.82,6.45-5.89,6.45c-4.08,0-10.23,0.48-18.46,1.45c-8.23,0.96-14.35,1.45-18.35,1.45
			c-2.82,0-4.97-5.19-6.45-15.57c-1.48-10.38-2.89-15.57-4.23-15.57c-0.89,0-4.89,2.89-12.01,8.67
			c-8.75,7.12-16.9,12.53-24.47,16.24c-11.72,5.93-23.43,8.9-35.14,8.9c-28.77,0-53.01-11.49-72.73-34.48
			c-18.68-21.94-28.03-47.52-28.03-76.74c0-32.92,9.42-60.13,28.25-81.63c19.72-22.39,45.67-33.59,77.85-33.59
			c22.69,0,42.48,7.86,59.39,23.58c2.52,2.97,6.45,7.27,11.79,12.9c0.44,0.44,0.89,0.67,1.33,0.67c0.89,0,2.15-4.67,3.78-14.01
			c1.63-9.34,3.7-14.01,6.23-14.01c4,0,11.49,1.11,22.46,3.34C558.79,224.72,564.87,227.09,564.87,229.17z M508.15,322.14
			c0-18.24-5.41-33.88-16.24-46.93c-11.42-14.09-26.02-21.13-43.82-21.13c-17.79,0-32.62,6.97-44.49,20.91
			c-11.42,13.35-17.13,29.06-17.13,47.15c0,17.94,5.71,33.51,17.13,46.71c11.86,13.79,26.69,20.69,44.49,20.69
			c17.35,0,31.88-7.04,43.59-21.13C502.67,355.21,508.15,339.79,508.15,322.14z"/>
		<path class="st0" d="M797.08,426.01c0,3.26-1.48,4.89-4.45,4.89c-4.89,0-12.2-0.08-21.91-0.22c-9.71-0.15-17.02-0.22-21.91-0.22
			c-2.67,0-4-2.15-4-6.45c0-7.26,0.22-18.31,0.67-33.14c0.44-14.83,0.67-25.95,0.67-33.36c0-5.93-0.08-14.79-0.22-26.58
			c-0.15-11.79-0.22-20.65-0.22-26.58c0-16.9-2.45-28.84-7.34-35.81c-5.93-8.3-16.9-12.46-32.92-12.46
			c-7.42,0-17.72,4.15-30.92,12.46c-13.94,8.75-20.91,16.54-20.91,23.35v133.46c0,3.71-1.41,5.56-4.23,5.56
			c-4.75,0-11.87-0.08-21.35-0.22c-9.49-0.15-16.61-0.22-21.35-0.22c-3.11,0-4.67-1.7-4.67-5.12c0-11.71,0.18-29.28,0.56-52.72
			c0.37-23.43,0.56-41.07,0.56-52.94c0-31.58-3.34-60.72-10.01-87.41c-0.44-1.33-0.67-2.3-0.67-2.89c0-1.48,0.96-2.52,2.89-3.11
			c1.04-0.15,9.53-1.52,25.47-4.11c15.94-2.59,24.28-3.89,25.02-3.89c0.89,0,1.48,1.19,1.78,3.56c0.74,9.2,2.45,18.46,5.12,27.8
			c7.71-6.08,17.87-13.64,30.47-22.69c15.57-9.49,30.62-14.24,45.15-14.24c27.88,0,46.93,8.08,57.16,24.24
			c7.56,11.87,11.34,31.07,11.34,57.61c0,4.6-0.11,11.64-0.33,21.13c-0.22,9.49-0.33,16.61-0.33,21.35c0,9.94,0.15,24.77,0.44,44.48
			C796.94,401.25,797.08,416.08,797.08,426.01z"/>
		<path class="st0" d="M1035.3,223.16c0,17.79-0.15,44.52-0.44,80.18c-0.3,35.66-0.44,62.39-0.44,80.18
			c0,35.29-7.56,61.31-22.69,78.07c-15.87,17.79-41.22,26.69-76.07,26.69c-33.66,0-60.87-6.38-81.63-19.13
			c-3.26-2.08-4.89-3.86-4.89-5.34c0,1.63,2.22-9.34,6.67-32.92c0.44-2.52,1.48-3.78,3.11-3.78c0.74,0,1.7,0.37,2.89,1.11
			c22.24,12.75,44.56,19.13,66.95,19.13c14.68,0,26.84-3.26,36.48-9.79c11.12-7.41,16.68-18.16,16.68-32.25
			c0-3.11-0.3-10.08-0.89-20.91c-16.46,20.02-37.37,30.03-62.72,30.03c-27.43,0-49.97-9.86-67.62-29.58
			c-16.9-18.98-25.36-42.33-25.36-70.06c0-28.17,8.15-52.12,24.47-71.84c17.35-21.05,39.89-31.58,67.62-31.58
			c24.47,0,43.89,9.42,58.28,28.25c2.37,3.11,4.08,4.67,5.12,4.67c1.19,0,1.78-1.33,1.78-4c0-1.93-0.15-5-0.44-9.23
			c-0.3-4.23-0.44-7.37-0.44-9.45c0-8.9,0.89-13.35,2.67-13.35c1.48,0,9.49,1.37,24.02,4.11c14.53,2.75,22.46,4.41,23.8,5
			C1034.26,218.12,1035.3,220.05,1035.3,223.16z M981.92,314.8c0-16.61-4.52-30.69-13.57-42.26c-9.94-12.6-22.99-18.91-39.15-18.91
			c-16.01,0-28.99,6.38-38.92,19.13c-9.05,11.57-13.57,25.58-13.57,42.04c0,16.16,4.59,30.1,13.79,41.82
			c9.93,12.75,22.83,19.13,38.7,19.13c15.72,0,28.62-6.37,38.7-19.13C977.25,344.9,981.92,330.96,981.92,314.8z"/>
	</g>
	<path class="st0" d="M261.62,138.19c-0.36,0.76-0.65,1.82-0.41,2.56c0.78,2.41,1.59,4.81,2.42,7.2L77.23,166.83
		c0.54-2.29,1.14-4.58,1.78-6.86c0.95-3.35,2.01-6.68,2.95-10.03c0.76-2.73,1.52-5.32,1.33-8.37c-0.31-4.94,0.16-10,0.86-14.93
		c1.89-13.22,6.99-25.21,14.65-36.14c1.06-1.52,1.84-1.49,3.33-0.53c12.87,8.3,23.15,19.08,31.17,32.09
		c0.71,1.16,1.24,2.75,3.12,1.89c1.33-0.61,1.45-1.91,0.52-3.9c-0.1-0.22-0.12-0.47-0.25-0.99c2.17-0.7,4.27-1.59,6.46-2.03
		c6.08-1.23,12.14-2.79,18.29-3.31c19.26-1.65,37.73,1.54,55.18,10.11c0.4,0.2,0.81,0.37,1.19,0.59c1.19,0.69,2.23,0.59,2.89-0.67
		c0.66-1.28,0.27-2.35-1-3.03c-1.33-0.71-2.68-1.37-4.23-2.16c0.45-0.58,0.74-1.04,1.11-1.42c11.64-11.67,25.48-19.51,41.41-23.66
		c3.47-0.9,3.54-0.87,5.16,2.4c6.45,12.96,6.7,26.02,0.49,39.14C263.11,136.14,262.15,137.07,261.62,138.19z"/>
</g>
</svg>