<svg xmlns="http://www.w3.org/2000/svg" width="83.917" height="75.378" viewBox="0 0 83.917 75.378">
  <g id="Grupo_60" data-name="Grupo 60" transform="translate(-952.467 5766.695)">
    <path id="Trazado_49" data-name="Trazado 49" d="M979.975-5761.182c3.007.813,5.847,1.542,8.662,2.357,1.193.346,1.756.167,1.659-1.216a18.559,18.559,0,0,1,.052-3.2,3.745,3.745,0,0,1,3.786-3.457,3.887,3.887,0,0,1,3.768,3.318,3.542,3.542,0,0,1,.038.374c.14,2.241-.854,4.972.392,6.6,1.259,1.643,3.469,2.79,5.129,4.311,4.236,3.882,8.025,8.111,10.456,13.42a13.855,13.855,0,0,1-.832,13.657,45.936,45.936,0,0,1-8.111,9.847,2.823,2.823,0,0,1-2.2.827c-1.129-.048-2.268.066-3.39-.032-1.213-.106-1.515.4-1.452,1.516.109,1.936-.611,4.457.354,5.657,1.021,1.27,3.652.239,5.566.429a8.378,8.378,0,0,0,7.673-3.167,13.847,13.847,0,0,1,7.725-4.562c5.162-1.315,10.266-2.865,15.368-4.405,1.307-.394,1.77-.089,1.663,1.222a.853.853,0,0,0,0,.188c.355,2.456-.184,4.176-2.879,5.179-3.195,1.189-5.436,3.686-7.206,6.636a73.147,73.147,0,0,1-6.3,9.356,12.928,12.928,0,0,1-10.644,5.008c-11.181-.117-22.364-.016-33.545-.046a22.746,22.746,0,0,1-22.767-18.9c-.939-4.9-.939-4.9,4.011-4.9,4.837,0,9.674.038,14.51-.024,1.409-.018,2.085.158,2.138,1.886a6.764,6.764,0,0,0,6.776,6.5c2.825.07,5.654-.023,8.48.036,1.055.022,1.473-.306,1.429-1.386-.064-1.568-.07-3.143,0-4.709.052-1.121-.3-1.559-1.481-1.52-2.384.079-4.773.026-7.16.02-.556,0-1.234.144-1.524-.463-.245-.512.271-.914.524-1.331q2-3.3,4.006-6.592c4.052-6.617,4.175-13.616,2.143-20.875a80.972,80.972,0,0,0-6.187-15.515A3.28,3.28,0,0,1,979.975-5761.182Z" fill="#50509c"/>
    <path id="Trazado_50" data-name="Trazado 50" d="M975.612-5698.478c-2.7,0-5.4-.018-8.1.007-1.378.013-1.721-.412-.926-1.652q8.579-13.379,17.113-26.786c.6-.948,1.173-1.151,1.68.043a52.553,52.553,0,0,1,4.282,14.744c.55,4.985-1.8,8.972-4.121,13-.439.763-1.163.63-1.834.634C981.01-5698.469,978.311-5698.477,975.612-5698.478Z" transform="translate(-8.533 -24.292)" fill="#50509c"/>
  </g>
</svg>
