<svg xmlns="http://www.w3.org/2000/svg" width="1347.742" height="795.822" viewBox="0 0 1347.742 795.822">
  <g id="Grupo_59" data-name="Grupo 59" transform="translate(-259 -1983.305)">
    <path id="Trazado_39" data-name="Trazado 39" d="M475.7-4174.93c-29.971,3.123-52.31-22.767-51.786-47.184a123.084,123.084,0,0,1,1.469-15.994c1.772-11.551,9.477-19.215,18.608-25.055,13.307-8.511,28.728-10.282,43.9-8.879,18.068,1.669,29.152,14.167,37.142,29.308,15.175,28.753,1.856,57.849-29.786,65.664a74.741,74.741,0,0,1-9.953,2.063A87.6,87.6,0,0,1,475.7-4174.93Z" transform="translate(5658.943 1708.281) rotate(-101)" fill="#f4c474"/>
    <path id="Trazado_34" data-name="Trazado 34" d="M499.372-4130.347c-43.669,4.549-76.219-33.173-75.455-68.75a179.362,179.362,0,0,1,2.14-23.3c2.582-16.831,13.808-28,27.113-36.506,19.389-12.4,41.859-14.981,63.969-12.938,26.326,2.432,42.476,20.643,54.118,42.7,22.111,41.9,2.7,84.289-43.4,95.675a108.881,108.881,0,0,1-14.5,3.006C508.459-4129.943,503.465-4130.347,499.372-4130.347Z" transform="translate(4563.72 1889.083) rotate(-101)" fill="#f4c474"/>
    <path id="Trazado_35" data-name="Trazado 35" d="M499.372-4130.347c-43.669,4.549-76.219-33.173-75.455-68.75a179.362,179.362,0,0,1,2.14-23.3c2.582-16.831,13.808-28,27.113-36.506,19.389-12.4,41.859-14.981,63.969-12.938,26.326,2.432,42.476,20.643,54.118,42.7,22.111,41.9,2.7,84.289-43.4,95.675a108.881,108.881,0,0,1-14.5,3.006C508.459-4129.943,503.465-4130.347,499.372-4130.347Z" transform="translate(4808.568 2380.016) rotate(-101)" fill="#f4c474"/>
    <path id="Trazado_38" data-name="Trazado 38" d="M472.315-4184.5c-28.013,2.816-48.893-20.534-48.4-42.556a107.258,107.258,0,0,1,1.373-14.425c1.656-10.418,8.858-17.33,17.393-22.6,12.437-7.676,26.852-9.273,41.035-8.009,16.888,1.505,27.248,12.778,34.716,26.433,14.184,25.933,1.735,52.175-27.84,59.223a72.166,72.166,0,0,1-9.3,1.861A84.942,84.942,0,0,1,472.315-4184.5Z" transform="translate(5795.015 2336.889) rotate(-101)" fill="#f4c474"/>
    <path id="Trazado_36" data-name="Trazado 36" d="M278.426-4187c-30.975,20.884-61.9,41.848-91.411,64.783-20.541,15.951-40.48,32.6-58.743,51.174a39.918,39.918,0,0,1-3.793,3.467c-8.138-31.023-11.166-63.137-9.62-96.293a355.942,355.942,0,0,1,6.38-51.81c2.816-.7,7-.7,13.282-.7h6.511c33.27.439,66.426,3.515,99.647,5.078,11.036.521,21.957,2.8,32.977,4,5.632.619,10.124,2.507,11.41,8.463C286.288-4193.153,282.674-4189.865,278.426-4187Z" transform="translate(-2939.681 3634.599) rotate(70)" fill="#f4c474"/>
  </g>
</svg>
