<svg xmlns="http://www.w3.org/2000/svg" width="963.156" height="465.062" viewBox="0 0 963.156 465.062">
  <g id="Grupo_50" data-name="Grupo 50" transform="translate(-4609.817 2218.568)">
    <path id="Trazado_8" data-name="Trazado 8" d="M5272.334-1754.357c-25.709,0-51.419.057-77.129-.024-13.82-.043-27.645-.155-41.458-.564-7.408-.219-14.791-1.578-22.193-1.657-34.537-.37-69.088,0-103.61-.863a509.345,509.345,0,0,1-54.517-4.573c-31.78-4.236-63.662-8.281-95.078-14.528-41.049-8.161-80.237-21.995-114.3-47.341-35.133-26.144-59.626-59.454-66.508-103.6-1.523-9.772-.352-19.974-.28-29.976.038-5.2.844-10.435.487-15.6-.6-8.714-5.069-12.758-14.332-14.239-22.153-3.545-44.314-7.047-66.42-10.869-2.5-.432-6.416-2.571-6.644-4.313-.559-4.279,3.681-3.663,6.682-4.719a83.266,83.266,0,0,0,17.84-8.417q22.941-14.967,45.217-30.94c7.447-5.37,13.187-12.816,15.333-21.818,9.96-41.778,37.967-68.362,74.008-87.968,32.824-17.855,68.147-29.266,104.166-38.77a644.516,644.516,0,0,1,89.8-16.822,850.353,850.353,0,0,1,126.73-5.7c19.825.652,39.675,2.073,59.386,4.287,34.823,3.912,69.74,7.572,104.26,13.437,33.788,5.742,67.233,13.663,100.636,21.453a388.361,388.361,0,0,1,78.856,27.677c51.175,24.363,89.706,61.482,114.636,112.532a244.311,244.311,0,0,1,23.141,76.8,167.7,167.7,0,0,1-87.839,169.652c-30.7,16.322-63.531,25.416-97.575,31.212C5348.092-1754.215,5310.252-1753.273,5272.334-1754.357Zm-638.362-250.085c3.033,1.089,4.476,1.879,6,2.115,13.845,2.133,27.7,4.234,41.564,6.209,9.169,1.306,18.7,2.764,21.972,12.9,2.086,6.463,3.215,13.866,2.344,20.53-2.718,20.783-.718,40.859,6.737,60.31,12.766,33.312,35.817,58.136,65.261,77.52,31.7,20.872,66.808,33.719,103.771,40.5,34.636,6.354,69.678,10.831,104.706,14.607,26.282,2.833,52.809,3.951,79.256,4.562,35.9.829,71.825.255,107.736.666,16.245.186,32.474,1.634,48.72,1.907,24.089.405,48.194.668,72.279.252,21.028-.364,42.148-.717,63.033-2.917,34.6-3.645,68.745-10.084,101.04-23.826,23.171-9.86,44.33-22.891,61.658-41.339,35.4-37.684,48.873-82.645,41.775-133.4-8.067-57.685-34.482-105.969-78.168-144.613-29.32-25.937-63.988-42.235-101.139-53.115-26.923-7.885-54.2-14.858-81.668-20.529-32.565-6.723-65.472-11.842-98.307-17.191-15.2-2.477-30.555-4.22-45.9-5.624-16.158-1.478-32.381-2.353-48.592-3.127-16.635-.794-33.291-1.564-49.938-1.566-14.027,0-28.077.79-42.075,1.808-19.958,1.451-39.968,2.743-59.795,5.335a641.912,641.912,0,0,0-104.1,22.253c-30.793,9.383-61.307,19.538-88.745,36.912-28.134,17.815-50.731,40.138-58.638,73.995-2.868,12.283-9.8,21.994-19.587,29.557-8.892,6.869-18.186,13.229-27.439,19.618C4650.354-2015.037,4642.765-2010.231,4633.972-2004.442Z" fill="#50509c" stroke="#694f9a" stroke-width="1"/>
    <path id="Trazado_9" data-name="Trazado 9" d="M4633.972-2004.442c8.793-5.789,16.382-10.595,23.767-15.695,9.253-6.389,18.547-12.749,27.439-19.618,9.791-7.563,16.719-17.274,19.587-29.557,7.907-33.857,30.5-56.18,58.638-73.995,27.438-17.374,57.952-27.529,88.745-36.912a641.912,641.912,0,0,1,104.1-22.253c19.827-2.592,39.837-3.884,59.795-5.335,14-1.018,28.048-1.81,42.075-1.808,16.647,0,33.3.772,49.938,1.566,16.211.774,32.434,1.649,48.592,3.127,15.346,1.4,30.7,3.147,45.9,5.624,32.835,5.349,65.742,10.468,98.307,17.191,27.471,5.671,54.745,12.644,81.668,20.529,37.151,10.88,71.819,27.178,101.139,53.115,43.686,38.644,70.1,86.928,78.168,144.613,7.1,50.756-6.378,95.717-41.775,133.4-17.328,18.448-38.487,31.479-61.658,41.339-32.295,13.742-66.437,20.181-101.04,23.826-20.885,2.2-42,2.553-63.033,2.917-24.085.416-48.19.153-72.279-.252-16.246-.273-32.475-1.721-48.72-1.907-35.911-.411-71.839.163-107.736-.666-26.447-.611-52.974-1.729-79.256-4.562-35.028-3.776-70.07-8.253-104.706-14.607-36.963-6.78-72.067-19.627-103.771-40.5-29.444-19.384-52.5-44.208-65.261-77.52-7.455-19.451-9.455-39.527-6.737-60.31.871-6.664-.258-14.067-2.344-20.53-3.271-10.134-12.8-11.592-21.972-12.9-13.868-1.975-27.719-4.076-41.564-6.209C4638.448-2002.563,4637-2003.353,4633.972-2004.442Z" fill="#f7c372" stroke="#694f9a" stroke-width="1"/>
  </g>
</svg>
