<svg xmlns="http://www.w3.org/2000/svg" width="328.76" height="468.963" viewBox="0 0 328.76 468.963">
  <g id="Grupo_3" data-name="Grupo 3" transform="translate(3998.431 2545.233)">
    <path id="Trazado_6" data-name="Trazado 6" d="M-3758.107-2269.885c-.7.171-1.35.5-2.761,1.042,2.862.871,4.985,1.542,7.125,2.163,16.966,4.929,33.972,9.727,50.875,14.865a44.315,44.315,0,0,1,11.462,5.464c6.42,4.269,9.715,10.535,8.248,18.292-1.508,8.019-7.183,12.431-14.809,14.388-10.358,2.657-20.256.233-30-3.119-9.727-3.346-18.64-8.337-27.376-13.687-1.337-.825-2.72-1.587-4.655-2.709.41,4.149.774,7.66,1.11,11.178,1.685,17.563,1.212,34.973-4.461,51.871-4.508,13.426-12.9,23.529-26.4,28.673-2.39.917-1.639,2.55-2.015,4.013q-2.006,7.829-4,15.662c-1.013,4.007-1.985,8.031-3,12.111,3.506.832,6.767,1.372,9.874,2.379,7,2.276,11.36,7.638,11.645,13.887.324,7.166-3.91,12.2-11.121,12.829-13.136,1.149-25.975-.961-38.713-3.933-1.93-.45-2.527-1.691-2.539-3.75-.084-14.195-1.172-28.3-4.478-42.167-.433-1.816-1.11-2.539-3.068-2.317-3.939.456-7.917.586-11.85,1.059a3.375,3.375,0,0,0-2.322,1.684,66.268,66.268,0,0,0-4.559,34.188,41.635,41.635,0,0,1,.188,4.542c.136,7.768-2.84,11.3-10.569,11.78-9.63.6-19.277.871-28.918,1.219a16.929,16.929,0,0,1-4.207-.438c-8.428-1.85-12.714-5.885-13.75-13.723-.712-5.326,2.139-12.515,9.277-16.333a58.769,58.769,0,0,1,11.372-4.224c2.014-.581,2.623-1.292,2.242-3.312-1.326-6.955-2.453-13.95-3.858-20.887a4.963,4.963,0,0,0-2.283-3.073c-18.8-9.237-30.369-24.125-34.421-44.592-3.1-15.7-1.7-31.246,2.977-46.516.961-3.129,1.958-6.254,3.2-10.228-4.5,2.482-8.179,4.61-11.946,6.568-11.44,5.937-23.369,10.365-36.437,10.479a31.471,31.471,0,0,1-10.256-1.81c-7.018-2.4-12.015-7.2-12.982-14.758-.957-7.473,2.691-13.454,8.838-17.251a64.424,64.424,0,0,1,15-6.51c16.448-5.01,33.016-9.619,49.533-14.4,1.041-.3,2.031-.757,3.6-1.355a27.21,27.21,0,0,0-2.589-1.2c-28.981-9.128-46.8-29.212-56.379-57.4a113.808,113.808,0,0,1-6.119-41.3c.688-17.643,5.293-34.5,11.587-50.9,2.915-7.593,5.766-15.236,9.175-22.607,1.554-3.364.785-6.642,1.127-9.914a130.593,130.593,0,0,1,27.6-68.246c2.39-3.05,5-5.941,7.621-8.8,2.584-2.84,3.711-2.881,6.767-.581a153.746,153.746,0,0,1,42.042,47.95c.5.894,1.036,1.775,1.5,2.578a155.934,155.934,0,0,1,51.861-4.348,160.378,160.378,0,0,1,59.986,16.652c1.754.871,2.858.586,4.263-.614a137.473,137.473,0,0,1,70.368-31.94c2.151-.314,4.32-1,6.432-.849a5.727,5.727,0,0,1,4.086,2.181,62.744,62.744,0,0,1,7.809,24.688,70.915,70.915,0,0,1-12.771,49.692,4.148,4.148,0,0,0-.472,2.863c2.373,12.038,5.293,23.988,7.165,36.1,3.734,24.125,3.842,48.125-5.89,71.147-11.052,26.146-30.66,42.964-57.511,51.5C-3747-2272.281-3752.61-2271.25-3758.107-2269.885Z" transform="translate(0)" fill="#f4c474" stroke="#50509c" stroke-width="4"/>
    <text id="_" data-name="¿?" transform="translate(-3903.047 -2313.385)" fill="#b774ad" font-size="176" font-family="BerlinSansFB-Reg, Berlin Sans FB"><tspan x="0" y="0">¿?</tspan></text>
  </g>
</svg>
