<svg xmlns="http://www.w3.org/2000/svg" width="221.104" height="426.406" viewBox="0 0 221.104 426.406">
  <g id="Grupo_52" data-name="Grupo 52" transform="translate(-4218.431 530.635) rotate(79)">
    <path id="Trazado_14" data-name="Trazado 14" d="M715.141-4291.163c-5.53,41.285-52.572,61.082-85.6,35.711-8.307-6.366-15.666-13.973-23.137-21.354-18.036-17.833-38.329-20.112-60.924-9.909-17.629,7.945-32.618,19.863-48.125,31.037-16.185,11.693-32.821,22.393-52.8,26.681-6.343,1.354-12.641,1.558-18.148,1.965-37.787.09-61.94-21.647-66.071-59.164-1.242-11.174-1.648-22.437-2.325-33.656-.564-9.119-2.054-18.08-7.517-25.552-5.372-7.381-11.964-12.234-22.076-7.924-9.21,3.95-15.575-.631-18.758-8.938a2.845,2.845,0,0,1-.135-.405c5.485-1.106,10.993-2.122,16.546-2.957,138.236-20.813,267.939.271,388.929,64.354A32.085,32.085,0,0,1,715.141-4291.163Z" transform="translate(1.908 -9.816)" fill="#f4c474"/>
  </g>
</svg>
