<svg xmlns="http://www.w3.org/2000/svg" width="295.822" height="598.357" viewBox="0 0 295.822 598.357">
  <g id="Grupo_56" data-name="Grupo 56" transform="translate(1395.818 -5609.534) rotate(-101)">
    <path id="Trazado_11" data-name="Trazado 11" d="M-5614.835-2463.826c3.5,63.948-2.873,126.779-24.943,187.108-11.139,30.439-32.984,50.474-66.408,56.756-35.76,6.725-67.5-15.263-72.117-51.388-5.324-41.633-1.141-83.12,2.143-124.6,1.711-21.652,4.482-43.233,5.773-64.908.564-9.463,2.18-18.3,6.1-26.812A669.037,669.037,0,0,1-5614.835-2463.826Z" transform="translate(131.25 0)" fill="#f4c474"/>
    <path id="Trazado_12" data-name="Trazado 12" d="M-5719.509-2487.668c11.408,14.3,13.008,31.837,12.967,48.639-.084,34.686-4.234,69.111-15.83,102.146-5.918,16.863-14.541,32.324-29.572,42.692-31.285,21.572-73.965,3.17-84.439-36.649-3.961-15.052-4.713-30.494-3.793-46.411,1.816-31.354.289-62.875,3.2-94.237C-5798.5-2481.813-5759.183-2486.03-5719.509-2487.668Z" transform="translate(0 0.002)" fill="#f4c474"/>
    <path id="Trazado_13" data-name="Trazado 13" d="M-5567.323-2406.8c1.338,31.419-6.031,59.888-28.877,82.781-36.574,36.646-83.035,27.452-99.635-21.553-12.607-37.206-13.564-76.376-7.9-115.387.576-3.98,3.063-7.681,4.676-11.511A614.4,614.4,0,0,1-5567.323-2406.8Z" transform="translate(293.541 33.436)" fill="#f4c474"/>
  </g>
</svg>
