<svg xmlns="http://www.w3.org/2000/svg" width="362.17" height="231.692" viewBox="0 0 362.17 231.692">
  <g id="Grupo_54" data-name="Grupo 54" transform="translate(4894.542 4086.573) rotate(17)">
    <path id="Trazado_11" data-name="Trazado 11" d="M-5678.445-2472.962c2.161,39.445-1.772,78.2-15.386,115.414-6.871,18.776-20.346,31.134-40.963,35.009-22.058,4.148-41.635-9.415-44.484-31.7-3.284-25.681-.7-51.271,1.322-76.857,1.055-13.356,2.765-26.668,3.561-40.037a45.094,45.094,0,0,1,3.76-16.539A412.685,412.685,0,0,1-5678.445-2472.962Z" transform="translate(58.091 0)" fill="#f4c474"/>
    <path id="Trazado_12" data-name="Trazado 12" d="M-5765.88-2487.668c7.037,8.823,8.023,19.638,8,30-.052,21.4-2.612,42.63-9.765,63.007-3.65,10.4-8.969,19.939-18.241,26.334-19.3,13.306-45.624,1.956-52.085-22.607-2.443-9.285-2.907-18.81-2.339-28.627,1.121-19.341.178-38.783,1.975-58.129C-5814.606-2484.057-5790.353-2486.658-5765.88-2487.668Z" transform="translate(0 0.001)" fill="#f4c474"/>
    <path id="Trazado_13" data-name="Trazado 13" d="M-5620.861-2431.959c.825,19.381-3.721,36.941-17.812,51.062-22.561,22.6-51.219,16.933-61.458-13.294-7.776-22.949-8.367-47.111-4.873-71.174.355-2.455,1.889-4.738,2.884-7.1A379.01,379.01,0,0,1-5620.861-2431.959Z" transform="translate(129.92 14.799)" fill="#f4c474"/>
  </g>
</svg>
