<svg xmlns="http://www.w3.org/2000/svg" width="248.141" height="485.915" viewBox="0 0 248.141 485.915" style='transform: rotate(180deg);'>
  <g id="Grupo_53" data-name="Grupo 53" transform="translate(4451.511 424.634) rotate(-98)">
    <path id="Trazado_17" data-name="Trazado 17" d="M522.248-4352.9a18.353,18.353,0,0,1-2.1,5.211c-7,12-14.247,23.832-21.179,35.88a575.973,575.973,0,0,0-40.9,88.564,214.622,214.622,0,0,1-20.773,42.74c-4.088,6.336-9.012,11.116-17.331,10.351-8.868-.812-11.689-7.721-13.912-14.461-5.952-17.881-5.665-36.837-8.677-55.219a617.717,617.717,0,0,0-32.82-120.405c-1.984-5.163-2.367-9.633-1.291-13.123A640.3,640.3,0,0,1,522.248-4352.9Z" transform="translate(345.104)" fill="#f4c474"/>
    <path id="Trazado_18" data-name="Trazado 18" d="M414.948-4185.256c-.622,8.8-3.131,15.9-12.693,17.474-10.4,1.721-14.725-5-17.713-13.674a706.624,706.624,0,0,0-68.127-143.758c-4.3-6.934-8.271-13.745-15.8-18.432a56.17,56.17,0,0,0-2.438-8.271c-.263-.717-.143-1.577-.406-4.709,14.988-3.012,30.215-6.741,45.633-9.06q36.681-5.521,72.645-7.314a22.315,22.315,0,0,1,.789,5.736c.311,24.98.1,49.984.1,74.963C418.749-4256.563,417.41-4220.9,414.948-4185.256Z" transform="translate(254.861 0.5)" fill="#f4c474"/>
    <path id="Trazado_19" data-name="Trazado 19" d="M562.7-4311.269a15.118,15.118,0,0,1-3.586,8.987,1098.215,1098.215,0,0,1-92.557,105.99c-5.88,5.881-12.43,7.027-19.53,3.515-6.669-3.275-7.41-9.251-6.813-16.256,3.131-35.233,5.833-70.492,8.7-105.751.837-13.649-3.155-26.821-3.705-40.326a34.645,34.645,0,0,1,.191-6q15.526,4.876,30.884,10.589a3.948,3.948,0,0,0,2.462.909A680.628,680.628,0,0,1,562.7-4311.269Z" transform="translate(452.69 17.033)" fill="#f4c474"/>
  </g>
</svg>
