<svg xmlns="http://www.w3.org/2000/svg" width="187.947" height="203.528" viewBox="0 0 187.947 203.528">
  <path id="Trazado_28" data-name="Trazado 28" d="M278.426-4187c-30.975,20.884-61.9,41.848-91.411,64.783-20.541,15.951-40.48,32.6-58.743,51.174a39.918,39.918,0,0,1-3.793,3.467c-8.138-31.023-11.166-63.137-9.62-96.293a355.942,355.942,0,0,1,6.38-51.81c2.816-.7,7-.7,13.282-.7h6.511c33.27.439,66.426,3.515,99.647,5.078,11.036.521,21.957,2.8,32.977,4,5.632.619,10.124,2.507,11.41,8.463C286.288-4193.153,282.674-4189.865,278.426-4187Z" transform="matrix(0.259, 0.966, -0.966, 0.259, -3958.605, 980.709)" fill="#f4c474"/>
</svg>
