<svg xmlns="http://www.w3.org/2000/svg" width="246.659" height="94.335" viewBox="0 0 246.659 94.335">
  <path id="Trazado_10" data-name="Trazado 10" d="M20.5,83.056l199-6.365c4.958-.159,10.508-.833,13.867-8.342,2.338-5.225,3.051-12.635,3.53-19.667.825-12.135,1.234-24.389,1.225-36.642a15.662,15.662,0,0,0-.617-5.351,3.436,3.436,0,0,0-2.814-2.235C217.013.437,199.182.372,181.394.31L94.9.019c-29-.1-58.162-.171-86.754,9.769-2.158.749-4.454,1.705-6,4.891C.144,18.8.016,25.28.014,31.1L0,64.508c0,4.463.036,9.218,1.234,12.937s16.54,5.8,19.268,5.611" transform="matrix(1, 0.017, -0.017, 1, 5.01, 3.549)" fill="#f4c474" stroke="#50509c" stroke-miterlimit="10" stroke-width="7"/>
</svg>
