<svg xmlns="http://www.w3.org/2000/svg" width="216.007" height="143.01" viewBox="0 0 216.007 143.01">
  <path id="Trazado_33" data-name="Trazado 33" d="M237.35-5683.21c-9.76,6.28-19.59,12.46-29.3,18.81q-38.055,24.9-76.03,49.91c-1.26.82-2.48,1.72-3.8,2.43-2.89,1.53-5.53,4.75-9.26,2.33-3.57-2.31-2.4-6.15-2.16-9.41.56-7.48,1.47-14.94,2.34-23.39-8.6,0-16.5-.1-24.39.02-17.9.28-35.79.67-53.69,1.01-1.64.03-3.42.46-4.88-.03-1.9-.63-4.34-1.63-5.07-3.17-.6-1.26.45-4.03,1.65-5.29,4.98-5.25,10.26-10.22,15.5-15.2,4.15-3.95,8.42-7.78,13.15-12.13-2.8-2.6-5.32-5.22-8.1-7.5-6.76-5.55-13.76-10.81-20.4-16.49a12.471,12.471,0,0,1-3.83-6.36c-.76-3.4,1.35-5.55,4.84-5.43q32.37,1.125,64.72,2.43c5.85.24,11.68.74,18.08,1.15.21-2.79.43-5.32.58-7.85.49-8.03.84-16.07,1.45-24.09.51-6.72,3.01-8.05,9.13-5.05,19.37,9.49,38.76,18.91,58.05,28.56,16.47,8.23,32.81,16.73,49.21,25.13.72.37,1.42.8,2.11,1.24C242.11-5688.45,242.15-5686.3,237.35-5683.21Z" transform="translate(-26.916 5749.998)" fill="#f4c474" stroke="#50509c" stroke-width="4"/>
</svg>
