<svg xmlns="http://www.w3.org/2000/svg" width="89.519" height="72.894" viewBox="0 0 89.519 72.894">
  <path id="Trazado_48" data-name="Trazado 48" d="M510.374-5759.536a37.324,37.324,0,0,0,27.024-7.674,18.552,18.552,0,0,1-10.584-3.686,18.352,18.352,0,0,1-6.544-9.131,18.6,18.6,0,0,0,8.231-.294,2.3,2.3,0,0,0-.642-.187,18.449,18.449,0,0,1-13.657-14.123,19.858,19.858,0,0,1-.391-3.724c0-.234.053-.246.244-.142a18.174,18.174,0,0,0,6.32,2.038,12.912,12.912,0,0,0,1.7.133c-.038-.1-.122-.132-.186-.177a18.255,18.255,0,0,1-6.979-9.318,18.138,18.138,0,0,1-.717-8.654,18.28,18.28,0,0,1,2.107-6.121c.161-.291.163-.289.378-.029a52.233,52.233,0,0,0,17.562,13.806,51.363,51.363,0,0,0,13.6,4.411,52.619,52.619,0,0,0,6.269.733c.236.013.306-.016.248-.274a17.719,17.719,0,0,1-.33-5.72,17.947,17.947,0,0,1,3.985-9.718,17.808,17.808,0,0,1,11.084-6.565,18.094,18.094,0,0,1,15.368,4.242,13.572,13.572,0,0,1,1.162,1.111.369.369,0,0,0,.4.118,37.179,37.179,0,0,0,11.193-4.269c.063-.036.129-.067.263-.136a18.766,18.766,0,0,1-7.964,10.118,37.971,37.971,0,0,0,10.387-2.77c-.31.438-.612.882-.931,1.314a37.19,37.19,0,0,1-7.956,7.945.518.518,0,0,0-.24.514,40.767,40.767,0,0,1-.014,4.541,50.494,50.494,0,0,1-.743,6.437,54.878,54.878,0,0,1-5.572,16.065,52.4,52.4,0,0,1-10.618,13.9A49.174,49.174,0,0,1,552.051-5753a52.825,52.825,0,0,1-7.123,1.277,56.983,56.983,0,0,1-6.87.358,52.051,52.051,0,0,1-23.138-5.582q-2.219-1.112-4.319-2.44C510.524-5759.431,510.45-5759.484,510.374-5759.536Z" transform="translate(-510.374 5824.252)" fill="#50509c"/>
</svg>
