<svg xmlns="http://www.w3.org/2000/svg" width="140.915" height="125.141" viewBox="0 0 140.915 125.141">
  <g id="Trazado_51" data-name="Trazado 51" fill="#f1c576" stroke-miterlimit="10">
    <path d="M124.033,121.418c-9.145-.887-18.455-1.345-27.851-1.589s-18.884-.274-28.373-.3-18.989-.06-28.408-.3-18.769-.7-27.954-1.594c-.687-.067-1.251-.755-1.737-1.915a25.468,25.468,0,0,1-1.269-4.742c-.374-1.951-.717-4.223-1.07-6.663s-.717-5.05-1.137-7.677c-.026-.164-.031-.183-.026-.135s.021.164.035.269.029.2.031.2-.007-.082-.04-.336c-.219-1.7-.395-3.567-.536-5.543s-.25-4.066-.333-6.222-.142-4.378-.185-6.62-.071-4.5-.093-6.737q-.059-6.354-.077-12.736t.01-12.781q.026-6.4.1-12.81T5.3,20.357c.011-.653.024-1.32.044-1.985s.043-1.327.078-1.97.077-1.268.135-1.858.129-1.144.218-1.648a9.719,9.719,0,0,1,.342-1.4,4.086,4.086,0,0,1,.4-.881,2.206,2.206,0,0,1,.434-.512,2.463,2.463,0,0,1,.439-.294,39.045,39.045,0,0,1,7.428-3.119,45.609,45.609,0,0,1,7.42-1.567,71.38,71.38,0,0,1,7.41-.531c2.469-.062,4.936-.038,7.4-.013l47.894.49c4.01.041,8.024.084,12.033.347a75.094,75.094,0,0,1,12,1.664,51.51,51.51,0,0,1,11.906,4.282,53.436,53.436,0,0,1,11.751,8.2,9.474,9.474,0,0,1,.885.9,7.3,7.3,0,0,1,.861,1.268,10.9,10.9,0,0,1,.786,1.9,21.493,21.493,0,0,1,.662,2.8c.251,1.439.433,3.082.564,4.863s.21,3.7.253,5.7.051,4.06.039,6.135-.044,4.158-.08,6.184l-.8,46.485c-.027,1.552-.056,3.131-.1,4.7s-.091,3.145-.161,4.683-.162,3.044-.282,4.487-.27,2.825-.457,4.117a6.439,6.439,0,0,1-1.663,3.381,11.5,11.5,0,0,1-3.174,2.393,16.986,16.986,0,0,1-3.651,1.409,11.771,11.771,0,0,1-3.1.427" stroke="none"/>
    <path d="M 123.6914215087891 124.8980026245117 L 123.6928863525391 124.8848342895508 C 124.9365615844727 124.8504791259766 126.4048461914062 124.6089859008789 127.9236297607422 124.1567153930664 C 129.4428100585938 123.704475402832 131.0124664306641 123.0409927368164 132.4580230712891 122.1631011962891 C 133.9040069580078 121.284782409668 135.2259216308594 120.1915893554688 136.2502899169922 118.8791046142578 C 137.2741088867188 117.5669097900391 138.0009002685547 116.0356597900391 138.2561798095703 114.280876159668 C 138.4579772949219 112.8919067382812 138.6174774169922 111.4035720825195 138.7439422607422 109.8634185791016 C 138.8704071044922 108.3232727050781 138.9647827148438 106.7305374145508 139.0372924804688 105.1320266723633 C 139.1093139648438 103.5339965820312 139.1594696044922 101.9296875 139.1974639892578 100.3668441772461 C 139.2359466552734 98.80375671386719 139.2622680664062 97.28189086914062 139.2871398925781 95.84754180908203 L 140.0911254882812 49.36569213867188 C 140.128662109375 47.20417022705078 140.1608581542969 45.02412414550781 140.1707000732422 42.87676620483398 C 140.1815032958984 40.72989273071289 140.1709136962891 38.61545181274414 140.1229095458984 36.58563232421875 C 140.0749053955078 34.55555725097656 139.9899444580078 32.61008834838867 139.8520050048828 30.79994010925293 C 139.7140502929688 28.98977851867676 139.5231018066406 27.3151683807373 139.2631378173828 25.82732009887695 C 139.0498199462891 24.60294914245605 138.7971038818359 23.54849815368652 138.5079345703125 22.62715721130371 C 138.2192535400391 21.7055606842041 137.8935852050781 20.91804885864258 137.5329284667969 20.22781181335449 C 137.1727600097656 19.53805160522461 136.7775573730469 18.94507789611816 136.3502807617188 18.41403007507324 C 135.9234619140625 17.88297271728516 135.4640808105469 17.41335487365723 134.9745330810547 16.96909332275391 C 131.2381896972656 13.57211017608643 127.4792861938477 10.9326696395874 123.7100143432617 8.879524230957031 C 119.9406051635742 6.82628059387207 116.1603164672852 5.359527111053467 112.3803558349609 4.309149265289307 C 108.6002655029297 3.258354425430298 104.8209762573242 2.623830080032349 101.0542068481445 2.23440408706665 C 97.28583526611328 1.844669818878174 93.52951049804688 1.700115084648132 89.79692077636719 1.629969000816345 C 89.39356994628906 1.62241792678833 88.99069976806641 1.615598797798157 88.58830261230469 1.609511613845825 C 88.18541717529297 1.603668570518494 87.78350830078125 1.598313570022583 87.38157653808594 1.593202233314514 C 86.97916412353516 1.588335156440735 86.57772064208984 1.583956003189087 86.17625427246094 1.579576730728149 C 85.77527618408203 1.575197339057922 85.37429809570312 1.571062088012695 84.97378540039062 1.5669264793396 L 37.07968902587891 1.073562622070312 C 34.54160308837891 1.047966599464417 31.98174476623535 1.022123694419861 29.40157699584961 1.089137315750122 C 26.82112121582031 1.156647443771362 24.2213134765625 1.316790223121643 21.60362815856934 1.663678765296936 C 18.98564338684082 2.01036262512207 16.34976577758789 2.544079065322876 13.6989221572876 3.357507228851318 C 11.04679679870605 4.171028614044189 8.380677223205566 5.264326572418213 5.700069904327393 6.731334209442139 C 5.235099792480469 6.985186100006104 4.822437763214111 7.279376983642578 4.45768404006958 7.622952938079834 C 4.092436790466309 7.966290473937988 3.775590658187866 8.359013557434082 3.500791072845459 8.809679985046387 C 3.225989103317261 9.260598182678223 2.99323558807373 9.769214630126953 2.798131227493286 10.34555530548096 C 2.603025674819946 10.92165660858154 2.44508171081543 11.56474781036377 2.317943334579468 12.2838773727417 C 2.222100019454956 12.8237771987915 2.144349336624146 13.41917610168457 2.081268310546875 14.05222797393799 C 2.017697811126709 14.68503570556641 1.968308448791504 15.35549545288086 1.930165886878967 16.04600143432617 C 1.891045331954956 16.73699951171875 1.862193822860718 17.44804191589355 1.840677261352539 18.16128349304199 C 1.818671464920044 18.87452507019043 1.803512096405029 19.5904541015625 1.791286468505859 20.29146766662598 C 1.715488195419312 24.55353546142578 1.653871059417725 28.82782363891602 1.607413053512573 33.10698699951172 C 1.560465812683105 37.38589477539062 1.527700185775757 41.66944122314453 1.510093450546265 45.95051193237305 C 1.492486953735352 50.23108673095703 1.489550590515137 54.50894165039062 1.500795125961304 58.77649688720703 C 1.51203978061676 63.04404067993164 1.537465214729309 67.301513671875 1.577560544013977 71.54061126708984 C 1.595163345336914 73.34744262695312 1.616189002990723 75.20658111572266 1.647483706474304 77.08331298828125 C 1.678778171539307 78.96002960205078 1.719852328300476 80.85433197021484 1.777552247047424 82.73148345947266 C 1.834762930870056 84.60863494873047 1.909576773643494 86.46862030029297 2.005905628204346 88.27647399902344 C 2.102723360061646 90.08457946777344 2.222522258758545 91.84053039550781 2.371170282363892 93.51012420654297 L 2.237679243087769 93.53044128417969 L 2.778480052947998 97.32675933837891 L 3.273794651031494 100.7683258056641 L 3.314377784729004 100.7643203735352 C 3.347137212753296 100.9852600097656 3.379408121109009 101.2052307128906 3.411189794540405 101.4239730834961 C 3.442482471466064 101.6429672241211 3.473774909973145 101.861213684082 3.505556583404541 102.0780029296875 C 3.537338495254517 102.2950439453125 3.56814169883728 102.5113372802734 3.598945379257202 102.7261734008789 C 3.629748582839966 102.9409942626953 3.660552024841309 103.1548538208008 3.691354990005493 103.3677215576172 C 4.090328216552734 106.1517181396484 4.445290088653564 108.6230621337891 4.830070495605469 110.7713470458984 C 5.214844226837158 112.9198379516602 5.628945350646973 114.7457427978516 6.147662162780762 116.2381439208984 C 6.665877342224121 117.7302627563477 7.288700580596924 118.8898696899414 8.089937210083008 119.7059936523438 C 8.891144752502441 120.5220718383789 9.871232032775879 120.9949493408203 11.10447120666504 121.1144256591797 C 13.98518943786621 121.3930282592773 16.88705062866211 121.6297760009766 19.80515289306641 121.8312377929688 C 22.7228832244873 122.0329208374023 25.65538787841797 122.1991119384766 28.59777450561523 122.3361663818359 C 31.53929710388184 122.4732284545898 34.49166870117188 122.5813903808594 37.44659042358398 122.6670608520508 C 40.40161514282227 122.7531967163086 43.36115264892578 122.8168563842773 46.3178596496582 122.864631652832 C 48.11766052246094 122.8935089111328 49.91683578491211 122.9167785644531 51.71294021606445 122.9354095458984 C 53.50988006591797 122.9542770385742 55.30424499511719 122.9685211181641 57.09553909301758 122.9798355102539 C 58.88669204711914 122.9911422729492 60.67526626586914 122.9997787475586 62.45833206176758 123.006706237793 C 64.24127197265625 123.0136489868164 66.02016448974609 123.0193786621094 67.79355621337891 123.0246276855469 C 69.55754089355469 123.030143737793 71.32773590087891 123.035888671875 73.10121154785156 123.042610168457 C 74.87599945068359 123.049560546875 76.65406036376953 123.0577163696289 78.43589782714844 123.0692901611328 C 80.21611785888672 123.0806198120117 82.00011444091797 123.0946273803711 83.78444671630859 123.1132659912109 C 85.56864166259766 123.1318969726562 87.35465240478516 123.1549224853516 89.14002990722656 123.1837921142578 C 92.00656890869141 123.2300033569336 94.87226867675781 123.2913513183594 97.73176574707031 123.3734359741211 C 100.5914001464844 123.4560089111328 103.4433670043945 123.5595626831055 106.2837829589844 123.6894836425781 C 109.1238479614258 123.8196334838867 111.9518737792969 123.9770965576172 114.7610549926758 124.1675262451172 C 117.5703811645508 124.3579330444336 120.3613815307617 124.581298828125 123.127685546875 124.8436965942383 L 123.1262359619141 124.8856506347656 C 123.1340103149414 124.8858642578125 123.1422882080078 124.8860931396484 123.1500625610352 124.8865509033203 C 123.1578521728516 124.8867797851562 123.1656265258789 124.8867492675781 123.1734161376953 124.8869781494141 C 123.1811904907227 124.8869552612305 123.1889801025391 124.8871841430664 123.1967697143555 124.8874130249023 C 123.2045440673828 124.8873825073242 123.2123260498047 124.8876113891602 123.220588684082 124.887825012207 C 123.2502670288086 124.8882369995117 123.2794418334961 124.8886337280273 123.3091201782227 124.888801574707 C 123.3387985229492 124.8892135620117 123.3694305419922 124.8891296386719 123.3995819091797 124.8890380859375 C 123.4297485351562 124.8892059326172 123.4598922729492 124.8888778686523 123.4900588989258 124.888557434082 C 123.5206985473633 124.8882217407227 123.5513458251953 124.8876571655273 123.5819854736328 124.8870849609375 C 123.5912246704102 124.8880310058594 123.600471496582 124.8889923095703 123.6097106933594 124.8899383544922 C 123.6184616088867 124.8906402587891 123.6272201538086 124.8915939331055 123.6364593505859 124.8925399780273 C 123.6456985473633 124.8932418823242 123.6544647216797 124.8942031860352 123.6636962890625 124.895393371582 C 123.6729354858398 124.8960952758789 123.6821899414062 124.8970565795898 123.6914215087891 124.8980026245117 Z M 89.68268585205078 8.626461029052734 C 93.20294189453125 8.691929817199707 96.68075561523438 8.824007987976074 100.1220092773438 9.172002792358398 C 103.5637130737305 9.51994514465332 106.9688873291016 10.08325290679932 110.3443145751953 11.01164817810059 C 113.7197341918945 11.93917465209961 117.0654678344727 13.23217487335205 120.3877944946289 15.03810977935791 C 123.7091598510742 16.84426879882812 127.0071411132812 19.16370391845703 130.2890777587891 22.14576721191406 C 130.462646484375 22.30392265319824 130.6425628662109 22.46695327758789 130.8239288330078 22.67801475524902 C 131.0052947998047 22.88907241821289 131.1885986328125 23.14815902709961 131.3684844970703 23.49746131896973 C 131.5493621826172 23.84724617004395 131.726806640625 24.28748512268066 131.8989105224609 24.86109161376953 C 132.0700378417969 25.4346923828125 132.2348327636719 26.14190483093262 132.388916015625 27.02490425109863 C 132.6222381591797 28.36133766174316 132.7928161621094 29.8984489440918 132.9157562255859 31.58284759521484 C 133.0386810302734 33.26698684692383 133.1129760742188 35.09791946411133 133.1546783447266 37.02176284790039 C 133.1963958740234 38.94535446166992 133.2040710449219 40.96162033081055 133.1923065185547 43.01666259765625 C 133.1800537109375 45.07146453857422 133.1493225097656 47.16504287719727 133.1132354736328 49.24253845214844 L 132.3091125488281 95.73147583007812 C 132.2847442626953 97.11631011962891 132.2598724365234 98.58599090576172 132.2233276367188 100.0915298461914 C 132.1872711181641 101.5970764160156 132.1400451660156 103.1380004882812 132.0728607177734 104.6657943725586 C 132.0056915283203 106.193603515625 131.9176177978516 107.7078018188477 131.8003692626953 109.1601486206055 C 131.6830902099609 110.6124954223633 131.5361938476562 112.0025253295898 131.3494110107422 113.2814712524414 C 131.2618560791016 113.8868026733398 130.9064025878906 114.4650192260742 130.3822021484375 114.9956283569336 C 129.8589782714844 115.5260238647461 129.1664886474609 116.0080718994141 128.4044799804688 116.4203567504883 C 127.6424179077148 116.832389831543 126.8112869262695 117.1751327514648 126.0102920532227 117.426139831543 C 125.2097473144531 117.6769104003906 124.438346862793 117.8366394042969 123.7963256835938 117.8836441040039 C 120.9746170043945 117.615348815918 118.1321487426758 117.3873291015625 115.2737350463867 117.1929702758789 C 112.4149551391602 116.9985656738281 109.5412368774414 116.8378601074219 106.6578826904297 116.7046890258789 C 103.7741928100586 116.571533203125 100.8803863525391 116.4659423828125 97.98232269287109 116.3818206787109 C 95.08339691162109 116.2979278564453 92.18119049072266 116.2352676391602 89.27957916259766 116.1879577636719 C 87.48300933837891 116.1586074829102 85.687744140625 116.1350784301758 83.89283752441406 116.1162033081055 C 82.09876251220703 116.0973205566406 80.30599975585938 116.0825805664062 78.51700592041016 116.0710067749023 C 76.72688293457031 116.0594177246094 74.93955993652344 116.0507583618164 73.15795135498047 116.0433197021484 C 71.37521362304688 116.0361175537109 69.59722900390625 116.0303726196289 67.82396697998047 116.0245971679688 C 66.05983734130859 116.0190505981445 64.28971862792969 116.0132827758789 62.51459121704102 116.0060501098633 C 60.73980712890625 115.9988098144531 58.96001434326172 115.9903793334961 57.17812728881836 115.9787673950195 C 55.39513397216797 115.966926574707 53.60955810546875 115.95263671875 51.82237243652344 115.9336929321289 C 50.03554534912109 115.9150238037109 48.24710845947266 115.8914489746094 46.45804595947266 115.8622589111328 C 43.63118362426758 115.8161544799805 40.8034782409668 115.7558670043945 37.98177719116211 115.6745529174805 C 35.15972900390625 115.5937194824219 32.34319305419922 115.4923400878906 29.53704833984375 115.3650054931641 C 26.73105621337891 115.237663269043 23.93644332885742 115.0841293334961 21.15907859802246 114.8990097045898 C 18.38137626647949 114.7136154174805 15.61995410919189 114.4963912963867 12.88117027282715 114.2416763305664 C 12.67296504974365 113.730598449707 12.46720314025879 112.99609375 12.26534938812256 112.1163787841797 C 12.06349277496338 111.2366485595703 11.86603546142578 110.2112274169922 11.67492961883545 109.1183013916016 C 11.4843111038208 108.0251312255859 11.30053424835205 106.8644561767578 11.12702083587646 105.7135391235352 C 10.95350456237793 104.5621109008789 10.79025173187256 103.4209213256836 10.63823986053467 102.3669586181641 C 10.56638813018799 101.8630752563477 10.49307060241699 101.3535614013672 10.41926383972168 100.8399047851562 C 10.34496784210205 100.3259963989258 10.26920413970947 99.80743408203125 10.19197463989258 99.28619384765625 C 10.11523342132568 98.76445770263672 10.03653717041016 98.23979187011719 9.955883979797363 97.71341705322266 C 9.875232696533203 97.18655395507812 9.793112754821777 96.65772247314453 9.708548545837402 96.128662109375 C 9.500316619873047 94.50055694580078 9.33265495300293 92.70536804199219 9.19627857208252 90.78837585449219 C 9.059900283813477 88.87136840820312 8.955296516418457 86.83254241943359 8.87317943572998 84.71788787841797 C 8.792038917541504 82.60272979736328 8.73338508605957 80.41099548339844 8.689395904541016 78.18867492675781 C 8.645895957946777 75.96610260009766 8.618040084838867 73.71220397949219 8.596048355102539 71.47247314453125 C 8.555488586425781 67.24990844726562 8.530081748962402 63.00897216796875 8.519339561462402 58.75846099853516 C 8.508111000061035 54.50745010375977 8.51154613494873 50.24613952636719 8.529158592224121 45.98186492919922 C 8.547260284423828 41.71783065795898 8.579050064086914 37.45083618164062 8.625505447387695 33.1884651184082 C 8.671960830688477 28.92584800720215 8.733081817626953 24.6678638458252 8.808867454528809 20.42257881164551 C 8.819135665893555 19.81750679016113 8.830870628356934 19.19972229003906 8.846515655517578 18.58364677429199 C 8.862160682678223 17.96781730651855 8.882206916809082 17.35443115234375 8.912028312683105 16.75790786743164 C 8.940872192382812 16.1613883972168 8.979494094848633 15.58246612548828 9.031313896179199 15.03580951690674 C 9.083133697509766 14.48964405059814 9.147662162780762 13.97525501251221 9.230278968811035 13.50902557373047 C 9.264987945556641 13.31172752380371 9.299206733703613 13.14743328094482 9.33098316192627 13.01223278045654 C 9.362269401550293 12.87703227996826 9.39208984375 12.77043533325195 9.417509078979492 12.68828582763672 C 9.442929267883301 12.6061372756958 9.463949203491211 12.54794692993164 9.479104042053223 12.50980663299561 C 9.494257926940918 12.47215366363525 9.504034996032715 12.45381546020508 9.505501747131348 12.45112609863281 C 11.67682933807373 11.31111907958984 13.87776660919189 10.46161460876465 16.10781478881836 9.830220222473145 C 18.33862495422363 9.199131965637207 20.59853363037109 8.785869598388672 22.88997459411621 8.518301963806152 C 25.18118858337402 8.251007080078125 27.50343132019043 8.129135131835938 29.85767364501953 8.080089569091797 C 32.21167755126953 8.030806541442871 34.5976676940918 8.054332733154297 37.01758193969727 8.078584671020508 L 84.91119384765625 8.564876556396484 C 85.31072998046875 8.568708419799805 85.70976257324219 8.572538375854492 86.10879516601562 8.57685661315918 C 86.50732421875 8.581175804138184 86.90536499023438 8.585738182067871 87.30290985107422 8.590300559997559 C 87.70093536376953 8.59510612487793 88.09798431396484 8.600646018981934 88.49501800537109 8.606428146362305 C 88.89156341552734 8.612454414367676 89.28762054443359 8.618969917297363 89.68268585205078 8.626461029052734 Z" stroke="none" fill="#50509c"/>
  </g>
</svg>
