<svg xmlns="http://www.w3.org/2000/svg" width="92.667" height="66.58" viewBox="0 0 92.667 66.58">
  <path id="Trazado_47" data-name="Trazado 47" d="M429.142-5731.408c-2.853-9.02-8.928-13.5-17.316-15.954-2.023-.589-4.1-1-6.174-1.426a14.6,14.6,0,0,0-2.37-.163,1.046,1.046,0,0,0-1.2.788c-.1.547.44.674.852.816,2.207.759,4.3,1.824,6.451,2.7,3.222,1.313,6.508,2.725,9.176,5.266-19.544-8.921-39.06-8.169-58.633-.135,5.2-4.308,11.681-5.9,17.763-8.936a4.564,4.564,0,0,0-.908-.454,4.823,4.823,0,0,0-1.057-.036,40.629,40.629,0,0,0-19.97,7.75,4.507,4.507,0,0,0-1.426,1.873,108.51,108.51,0,0,0-10.751,42.565,6.021,6.021,0,0,0,1.668,4.542c4.812,5.358,10.915,8.14,17.876,9.488,3.215.625,5.422-.014,7.345-2.846,2.221-3.264,2.434-3.115-1.135-4.684-4.379-1.923-7.735-4.577-8.949-7.083,19.289,10.311,38.748,11.142,58.562.625a6.853,6.853,0,0,1-3.612,4,31.445,31.445,0,0,0-4.584,2.442c-1.093.8-3.343.588-3.243,2.015.092,1.242,1.611,2.427,2.6,3.548.887,1,1.391,2.477,3.229,2.321,8.1-.674,15.237-3.428,20.935-9.46a6.676,6.676,0,0,0,1.966-5.216C435.77-5708.918,432.7-5720.146,429.142-5731.408Zm-54.2,29.635c-4.435-.085-8.019-4.038-8.012-8.849.014-4.954,3.712-8.856,8.31-8.786,4.506.078,8.012,3.953,7.97,8.814C383.163-5705.583,379.515-5701.687,374.945-5701.772Zm29.146,0c-4.528.021-8.218-4.023-8.168-8.935.057-4.861,3.626-8.686,8.1-8.693,4.577-.007,8.275,4.01,8.2,8.907C412.16-5705.661,408.547-5701.786,404.091-5701.772Z" transform="translate(-343.571 5748.952)" fill="#50509c"/>
</svg>
