<svg xmlns="http://www.w3.org/2000/svg" width="140.936" height="125.141" viewBox="0 0 140.936 125.141">
  <path id="Trazado_41" data-name="Trazado 41" d="M-6493.982-2754.281c36.719-2.957,75.924.991,112.643-1.966,2.744-.221,3.7-10.416,5.564-20.881.117-.656-.147,1.013,0,0,.991-6.788,1.34-16.144,1.582-25.064.456-16.914.683-33.994.678-51.072a53.633,53.633,0,0,0-.343-7.458c-.362-2.289-.988-2.791-1.557-3.115-9.787-5.6-19.658-5.69-29.5-5.775l-47.88-.406c-16.052-.137-32.194-.238-48.022,13.616-1.2,1.044-2.466,2.376-3.322,6.817-1.107,5.745-1.178,14.776-1.179,22.893l-.007,46.559a154.292,154.292,0,0,0,.683,18.032c.662,5.186,8.174,7.839,11.479,7.807" transform="matrix(1, 0.017, -0.017, 1, 6459.831, 2986.687)" fill="#f1c576" stroke="#50509c" stroke-miterlimit="10" stroke-width="7"/>
</svg>
