<svg xmlns="http://www.w3.org/2000/svg" width="322.938" height="81.797" viewBox="0 0 322.938 81.797">
  <path id="Trazado_27" data-name="Trazado 27" d="M-6478.24-2800.864l262.959-5.3c6.552-.132,13.885-.694,18.324-6.948,3.089-4.352,4.032-10.524,4.664-16.382a282.072,282.072,0,0,0,1.619-30.521,8.56,8.56,0,0,0-.815-4.457c-.866-1.368-2.362-1.668-3.719-1.862-23.362-3.346-46.924-3.4-70.43-3.451l-114.295-.243c-38.319-.082-76.854-.142-114.637,8.137-2.853.624-5.886,1.42-7.93,4.074-2.642,3.433-2.812,8.83-2.813,13.681l-.018,27.824c0,3.717.048,7.678,1.631,10.776s21.855,4.832,25.46,4.674" transform="matrix(1, 0.017, -0.017, 1, 6459.02, 2986.694)" fill="#f1c576" stroke="#50509c" stroke-miterlimit="10" stroke-width="7"/>
</svg>
